<svg xmlns="http://www.w3.org/2000/svg" width="50" height="50">
    <path fill-rule="evenodd" fill="#FFF" d="M48.26 43.589c-.681-.026-1.132-.005-1.595-.005-.007.15-.016.242-.015.334.01 1.412.014 2.825.039 4.238.008.487-.139.974.191 1.064H3.976c-.457-.11-.606-.575-.601-1.064.015-1.504.005-3.008.005-4.572H2.13c-.928-.003-1.162-.237-1.162-1.171V14.237c0-.984.227-.937 1.227-.937H13.805v-.861c0-3.439.003-6.879-.005-10.319-.001-.507.087-.938.61-1.153h21.244c.52.216.612.643.61 1.152-.009 3.439-.004 6.877-.004 10.317v.864h.562c3.712 0 7.424.06 11.136-.07.501-.02.886-.08 2.002.365V43c-1.086.442-1.441.618-1.7.589zm-9.513 4.002h6.833c0-1.163.4-2.304-.1-3.442-.499-1.56-1.79-2.838-3.323-2.942-1.662.743-3.19.937-3.38 2.528-.151 1.261-.03 2.554-.03 3.856zm4.722-9.645c-.006-.286-.705-1.579-1.584-1.584-.888-.005-1.624 1.558-1.614 1.613.01.864 1.029 1.582 1.596 1.589a1.596 1.596 0 0 0 1.602-1.618zM29.17 47.584c.13-.087.29-.147.29-.207.02-1.774.16-3.548-.03-4.807-.11-1.35-.728-1.6-.63-3.267-1.818-1.174-3.478-1.615-5.078-1.106-1.415.45-2.553 2.153-1.892 3.342-.73 1.283-.53 2.571-.67 3.857.64.719-.01 1.438-.01 2.188h8.02zm-1.737-13.649c-.005-1.316-1.082-2.399-2.033-2.407-1.681-.009-2.795 1.12-2.768 2.438.027 1.335 1.094 2.382 2.848 2.373.891-.011 1.958-1.085 1.953-2.404zM5.78 47.603c-.637.003-.546.011-.455.011h6.04c0-1.229.079-2.408-.02-3.194-.134-1.97-1.405-3.128-2.939-3.217-1.6-.092-3.047 1.467-3.289 2.459-.194 1.277.663 2.608.663 3.941zm4.014-9.64c.002-.173-.244-1.613-1.627-1.601-.878.011-1.571 1.408-1.572 1.596a1.597 1.597 0 0 0 1.614 1.605c1.541-.014 1.583-.737 1.585-1.6zm3.949-.387c-.954-1.264-.981-2.589-.106-3.922.11-.169.16-.407.161-.244.008-5.65.007-12.3.005-18.266 0-.163-.02-.327-.03-.495H2.6v27.322c.91 0 .871.001 1.291-.001.046 0 .509 0 .369-.027-.049-.232.104-.496.314-.702.396-.39.824-.749 1.239-1.12-1.285-1.543-.937-3.402.113-4.439 1.974-1.151 2.921-1.255 4.198-.279a3.121 3.121 0 0 1 1.187 1.861c.24 1.087-.08 2.037-.779 2.896l.991.717c.372-1.385 1.157-2.399 2.338-3.117-.052-.082-.082-.135-.118-.184zM13.7 42.13c-.726 1.656-.7 3.43-.5 5.204.1.088.11.175.25.26h5.96v-.709c-.007-1.742.026-3.486-.037-5.226-.038-1.053-.604-1.875-1.506-2.412-2.178-1.298-4.307.197-4.167 2.883zm.905-6.581a1.62 1.62 0 0 0 1.581 1.604c1.384.012 1.595-.687 1.614-1.558.02-.907-.676-1.636-1.569-1.646a1.613 1.613 0 0 0-1.626 1.6zM34.61 2.598H15.451V32.42c1.41-.252 2.939.104 3.384 1.272.947 2.148.751 2.777-.237 4.019l1.562 1.405c.329-.395.629-.822.997-1.177.375-.362.819-.652 1.232-.974-1.686-1.997-1.794-4.203.561-5.763.635-1.55 2.891-1.748 4.545-.448.804.631 1.318 1.467 1.475 2.489.228 1.472-.25 2.713-1.238 3.645.775.752 1.517 1.472 2.235 2.692.466-.94.982-1.403 1.506-1.873-.959-1.223-1.152-2.559-.291-3.907.78-1.22 1.97-1.629 3.428-1.386V2.598zm-.751 31.351a1.585 1.585 0 0 0-1.595 1.62 1.597 1.597 0 0 0 1.589 1.584 1.618 1.618 0 0 0 1.606-1.625 1.612 1.612 0 0 0-1.6-1.579zm-.459 4.864c-1.623.757-2.72 1.522-2.741 3.777-.021 1.212-.005 2.954-.003 4.696 0 .102.029.205.048.328h6.081c.075 0 .151-.01.855-.019 0-.755.06-2.971-.03-4.429-.03-.58.2-1.168-.618-1.737-.266-1.712-1.888-2.872-3.592-2.616zm14.059-24.151H36.291c-.012.132-.03.239-.03 1.138-.001 5.72-.003 12.16.007 17.341 0 .186.082.399.189.555 1.413.922.781 1.909.395 2.952-.144.722-.397.737-.577 1.062.467.449 1 .853 1.388 2.05.917-.16.645.472.964 1.065l.875-.648c-1.154-2.013-1.043-3.527.332-4.69 1.306-.999 2.872-.997 4.097.011.579.475.948 1.092 1.219 1.822.062 1.059-.221 2.01-.848 3.22.575.14 1.106.725 1.647 1.3.191.07.182.123.277.127.403.014 1.114.006 1.233.006V14.662zm-3.956 4.822H45.6v12.822h-2.097V19.484zm-4.801.009h1.536v12.832h-1.536V19.493zm-8.023 4.032h1.56v2.105h-1.56v-2.105zm.008-3.222h1.547v1.559h-1.547v-1.559zm.009-2.403h1.538v.733h-1.538V17.9zm-1.12-5.679c-1.006.006-3.037.002-4.366.002-1.692.001-3.06.004-4.697-.001-.828-.003-1.1-.274-1.102-1.099a1893.46 1893.46 0 0 1 0-5.838c.002-.822.286-1.107 1.101-1.107 3.021-.002 6.043-.002 9.064 0 .787.001 1.075.289 1.076 1.083.005 1.961.005 3.923 0 5.885-.001.795-.278 1.073-1.076 1.075zM29.17 5.81h-7.71v4.773h7.71V5.81zM17.838 20.303h1.549v1.544h-1.549v-1.544zm0-2.313h1.541v.651h-1.541v-.651zm.006 5.533h1.536v2.157h-1.536v-2.157zm1.533 4.755H17.83v-1.543h1.547v1.543zm1.948-14.429c.402-.029.808-.011 1.254-.011v1.576H21.17c0-.463-.17-.898.14-.554.06-.864-.093-1.004.015-1.011zm1.262 4.791H21.49V17.1h1.097v1.54zm-.004 3.227H21.51v-1.564h1.073v1.564zm.008 1.642v2.181H21.53v-2.181h1.061zm.001 4.771H21.52v-1.559h1.072v1.559zm3.205-12.862h-1.543v-1.552h1.543v1.552zm.003 6.45h-1.536v-1.565H25.8v1.565zm.01-3.238h-1.537v-.79h1.537v.79zm.004 6.98h-1.558v-2.099h1.558v2.099zm-.005 2.673h-1.545v-1.554h1.545v1.554zm1.672-9.645v-.798h1.659v.798h-1.659zm-.006-4.776h1.705v1.545h-1.705v-1.545zm1.765 7.986h-1.771v-1.545h1.771v1.545zm-.03 1.671V25.7h-1.729v-2.181h1.729zm.05 4.755h-1.791v-1.538h1.791v1.538zm2.968.003h-1.534v-1.545h1.534v1.545zM9.834 19.492h1.537v12.832H9.834V19.492zm-4.614.001h1.342v12.818H5.22V19.493z"/>
</svg>
