<svg xmlns="http://www.w3.org/2000/svg" width="49" height="49">
    <path fill-rule="evenodd" fill="#FFC106" d="M47.767 30.948c-3.857 3.225-9.323 6.495-14.05 9.644-1.217 1.141-3.755 2.048-5.788 1.194-2.545-.347-5.065-.871-7.595-1.321-.607-.108-1.212-.234-1.819-.34-.685.575-1.323-.01-1.919.377-1.166.756-2.339 1.798-2.856 2.23-.937.167-.992.848-.898.625.384 1.212.746 2.43 1.111 4.043.224.353.008 1.2-.747 1.2-2.716.02-6.314.02-9.47 0-.636 0-.815-.692-.894-1.34-.496-4.08-.985-8.16-1.479-12.05-.219-1.999-.44-3.807-.668-5.615-.089-.705.112-.956.822-.956 2.059-.003 4.117.008 6.176-.009.496-.004.757.194.888.663.211 1.227.769 1.51.701 2.321.818-.22 1.456-.642 2.015-1.183 1.226-1.186 2.596-2.132 4.251-2.615 2.442-.714 4.824-.547 7.103.583 1.248.781 2.533.912 3.918.865 1.114-.039 2.28.182 3.33-.082 1.031-.259 1.954-.968 2.908-1.51 1.718-.974 3.386-.955 5.035.163.115.078.354.07.489.005 1.52-.737 2.839-.566 4.053.605.264.254.428.148 1.106.035 1.32-.833 3.421-.272 4.49 1.309.355.526.313.797-.213 1.159zm-40.23-.767c-.041.299-.276-.283-.428-.291-.616-.033-1.234-.014-1.851-.014h-3.28c.69 5.677 1.373 11.296 2.382 16.925h8.192c.005-.054.02-.091.011-.121-1.67-5.501-3.339-11.003-5.026-16.499zm24.91-.871c.505.254.987.503 1.476 1.18.577.39.213-.38.285.22 1.382-1.087 1.695-1.547 2.609-2.042-1.698-.949-3.035-.195-4.37.642zm6.845-.545c-1.431.728-2.835 1.511-3.862 2.595-.129.14.109.569.366 1.032l5.649-3.056c-.557-.638-1.474-.917-2.153-.571zm4.139.912c-1.871 1.268-4.741 2.552-7.106 3.839-.13.071.225.22-.115.357-.349.648-.466.744-.48.709-1.45-.054-2.748-.14-3.793-.138-1.747.004-3.493.062-5.24.107-.53.013-.807-.145-.826.249-.023-1.29.308-1.462.721-1.482 1.403-.066 2.807-.15 4.211-.152 2.047-.001 2.565.095 3.885.15-.036-.187-.048-.323-.088-.449-.425-1.335-1.721-2.333-3.128-2.363-1.355-.029-2.713-.06-4.066-.001-2.011.086-3.865-.32-5.722-1.154-2.894-.839-5.744-.915-8.323.947-1.212.874-2.163 2.115-3.717 2.519l2.712 8.911c1.27-.804 2.46-1.552 3.644-2.31.822-.525 1.718-.679 2.663-.522.997.706 1.987.376 2.982.554 2.108.377 4.207.835 6.33 1.094 2.385.253 4.009-.2 5.757-1.422 2.969-1.65 5.964-4.01 8.947-6.163 1.921-.527 2.651-1.832 4.013-2.774-.934-.928-2.125-.483-3.261-.506zM7.952 46.203c-1.083.002-1.953-.877-1.452-1.966-.39-1.053.393-1.933 1.44-1.931 1.16.002 1.969.909 1.954 1.973-.014 1.058-.194 1.923-1.942 1.924zm.014-2.654a.722.722 0 0 0-.724.715.716.716 0 0 0 .684.698.712.712 0 0 0 .727-.709.73.73 0 0 0-.687-.704zm34.732-21.025c-3.14.004-6.279.002-9.418.002h-.662c0 .449.007.842-.002 1.234-.015.601-.185.785-.769.786-4.94.004-9.881.004-14.597-.001-.783 0-.96-.189-.973-.747-.008-.393-.001-.688-.001-1.272h-.677l-9.315-.001c-.831 0-1-.167-1-.985 0-1.273-.02-2.548.009-3.82.053-2.359 2.022-4.404 4.295-4.452.265-.005.609.138.793.33 1.308 1.376 3.078 1.902 4.373.006.946-.342.661-.423 1.06-.318.575.151 1.138.347 1.762.541a5.358 5.358 0 0 1 2.98-1.662c.627.315 1.11-.048 1.593.487 1.285 2.088 3.503 1.788 4.795-.041.42-.467.84-.061 1.408-.442a5.35 5.35 0 0 1 2.913 1.618c.975-.191 1.446-.375 2.138-.532.348-.078.707.08.849.353 1.195 1.358 3.084 1.386 4.289.049.319-.354.651-.449 1.091-.382a4.654 4.654 0 0 1 3.949 4.539c.02 2.056.007 2.547.005 3.82-.001.69-.195.889-.888.89zm-26.754-7.928a.704.704 0 0 0-.529.139c-1.734 1.534-3.94 1.525-5.682-.023a.707.707 0 0 0-.533-.146c-1.443.289-2.585 1.553-2.659 3.029-.06 1.201-.012 2.505-.012 3.652h9.696c.247-2.119-.36-4.274.595-6.342-.304-.113-.582-.255-.876-.309zm15.394 2.333c-.057-1.672-1.138-3.077-2.96-3.485.602-.07-.461-.032-.678.174-1.855 1.765-4.524 1.743-6.398-.014a.807.807 0 0 0-.619-.181c-1.844.368-3.135 1.929-3.163 3.851-.028 1.874-.009 3.946-.007 5.622 0 .364.028.26.043.385h13.799c0-2.16.054-4.051-.017-6.352zm10.987.627c-.073-1.381-1.123-2.589-2.431-2.953-.261-.073-.454-.068-.688.145-1.676 1.527-3.92 1.502-5.627-.026-.114-.101-.305-.214-.43-.186-.372.084-.728.234-.619.36.71 2.096-.109 4.256.141 6.361h9.668c0-1.264.051-2.485-.014-3.701zm-6.198-4.428c-2.14-.155-3.815-1.786-3.938-3.919-.054-.922-.057-1.866.072-2.777.294-2.072 2.218-3.595 4.264-3.475 2.193.893 3.889 1.814 3.987 3.97.017.378.002.757.002 1.693l.054.03c-.049.014-.031.626-.158 1.207-.441 2.018-2.3 3.414-4.283 3.271zm3.154-4.368c0-1.045.015-1.407-.002-1.767-.074-1.518-.929-2.691-2.779-2.798-.56.775-2.795.917-2.998 2.355a11.138 11.138 0 0 0-.014 2.924c.179 1.399 1.401 2.378 2.793 2.422a2.92 2.92 0 0 0 2.924-2.279c.109-.498.082-1.025.117-.837-.014 0-.027-.01-.041-.02zm-15.178 2.993c-2.412-.23-4.203-2.023-4.315-4.401-.05-1.062-.096-2.151.081-3.19.397-2.335 2.577-3.966 4.864-3.787 2.514.197 4.737 2.123 4.404 5.585.011-.538.001-.21.001.8.022.03.044.05.065.08-.075-.041-.074.693-.24 1.387-.529 2.226-2.651 3.736-4.86 3.526zm3.735-7.145c-.152-1.635-1.504-2.865-3.161-3-1.553-.127-3.105.91-3.517 2.902-.17.177.14.862-.228 1.84.028.03.055.05.208.07 0 .069-.154.517.05.961-.04 1.747 1.398 3.095 3.174 3.158 2.546.061 3.303-1.252 3.473-3.002.094-.969.091-1.96.001-2.929zm-15.693 8.508c-2.157-.256-3.723-1.886-3.782-4.002-.026-.959-.071-1.944.108-2.877.392-2.043 2.335-3.453 4.318-3.274 2.177.197 3.8 1.859 3.907 4.011.018.36.002.722.002 1.596l.076.09c-.083.085-.088.784-.264 2.33-.519 1.41-1.9 2.353-4.365 2.126zm3.32-4.506c0-.892.015-1.237-.003-1.31-.085-1.873-.802-3.124-2.964-3.11-1.586.013-2.858 1.263-2.909 3.52-.022.048-.026.738.006 1.424.07 1.483 1.255 2.651 2.764 2.758 1.39.099 3.531-.899 3.012-2.292.102.39.094-1.023.137-.96l-.043-.03z"/>
</svg>
