<svg xmlns="http://www.w3.org/2000/svg" width="49" height="49">
    <path fill-rule="evenodd" fill="#FFC106" d="M25.2 7.491h12.973c.997 0 1.053.208 1.053 1.05v21.158c0 .808.574 1.024-1.034 1.024H11.803c-.847 0-1.053-.206-1.053-1.051V8.56c0-.872.2-1.069 1.081-1.069H25.2zm12.583 1.446H12.186v3.041h25.597V8.937zM12.185 29.285h25.608V13.441H12.185v15.844zm19.317-4.808a.7.7 0 0 1-1.007.002c-.261-.271-.257-.701.043-1.009.697-.715 1.409-.93 2.114-2.123.108-.109.21-.224.448-.381-.873-.775-1.615-1.511-2.357-2.246-.089-.088-.182-.172-.26-.27-.248-.311-.237-.727.036-.972.298-.267.648-.298.93-.024a154.012 154.012 0 0 1 3.077 3.079c.292.3.25.669-.043.966-.987.999-1.979 1.994-2.981 2.978zm-3.208-5.8c-1.875 1.877-3.748 3.755-5.629 5.626-.179.177-.408.302-.672.495-.239-.176-.505-.279-.595-.466-.093-.191-.037-.47.003-.703.018-.104.15-.193.238-.28 1.907-1.911 3.815-3.82 5.723-5.73.067-.066.131-.137.206-.19.308-.218.623-.214.896.042.291.274.3 1.279.083.932-.067.102-.165.186-.253.274zM16.96 20.985c.813.813 1.575 1.572 2.335 2.333.426.429.488.872.169 1.179-.311.3-.738.242-1.145-.165a867.83 867.83 0 0 1-2.711-2.717c-.454-.457-.46-.791-.016-1.24a560.72 560.72 0 0 1 2.779-2.782c.393-.39.794-.42 1.105-.1.295.304.253.73-.127 1.112-.78.784-1.566 1.561-2.389 2.38zM29.498 9.72c.422.001.744.7.742.74a.755.755 0 0 1-.745.749c.465-.001-.749-.353-.748-.753 0 .014 1.083-.737.751-.736zm3.019 0c.421.007.734.8.726.753a.75.75 0 0 1-.756.736c.403-.009-.745-.37-.737-.766.009-.093.351-.73.767-.723zm3.008-.001c.42.008.732.811.722.757a.745.745 0 0 1-.756.733c.429-.011-.745-.373-.735-.768.01-.111.353-.729.769-.722zm10.689 28.545c-4.464-.036-10.278-.014-15.417-.014h-.586c0 1.619-.007 3.178.014 4.738.001.121.177.274.307.354.93.573 1.861 1.147 2.81 1.938.446.002.657.326.631.843a17.272 17.272 0 0 0 0 1.641c.018.425-.11.758-.453 1.007H16.457c-.347-.247-.472-.582-.057-1.007a3.95 3.95 0 0 1 0-1.642c-.418-.491-.24-.82.196-.582.962-1.035 1.907-1.617 2.85-2.198.13-.08.304-.234.306-.356.021-1.56.014-3.12.014-4.736h-.591c-5.187 0-10.375-.029-15.562.017-.913.015-2.669-.992-2.645-2.665.312-4.378.02-8.758.02-13.137 0-.125-.005-.25.002.435.17-1.254.294-1.535.692-1.54 1.168-.006.681.27.711 1.33.008-.496.003-.37.003-.245V32.287h45.157V5.895h-2.352c-.688 0-1.375.008-2.063-.005-.452-.008-.729-.277-.739-.677-.011-.417.277-.72.745-.725 1.297-.011 2.594-.004 4.206-.005h.223c0-.575.027-1.104-.009-1.629-.028-.403-.298-.644-.699-.707-.153-.024-.311-.012-.468-.012L3.6 2.134c-.99 0-1.204.216-1.204 1.214v1.135h.744l36.109.001c.187 0 .381-.017.559.025.359.087.57.327.554.71-.016.378-.236.604-.605.662-.184.029-.374.014-.562.014H2.396v.584l-.001 11.964c0 .156.018.317-.014.468-.075.362.429.582-.682.586-.383.004.181-.215-.099-.573-.629-.15-.611-.312-.611-.469L.988 3.442c0-1.576.349-2.107 1.781-2.715h44.438c.912.573 1.503.873 1.782 1.783v33.969c-.453 1.332-1.408 1.794-2.775 1.785zm-28.56 8.546c-.102-.665-.211-.528-.222-.415-.031.305-.011.705-.011.945h15.137c0 .62-.023-.448.004-.645.051-.363-.1-.564-.414-.741-.775-.435-1.534-.404-2.289-1.37-.217-.135-.367-.115-.587.008-2.845 1.595-5.699 1.586-8.559.026-.146-.08-.399-.121-.527-.049-.857.941-1.695.995-2.532 2.241zm11.15-3.975c-.016-.922-.006-1.844-.006-2.155v-2.405h-7.567c-.021.073-.045.117-.045.161-.004 1.516-.013 3.032.006 4.547.002.147.144.351.279.425 2.327 1.282 4.666 1.284 7.01.033.258-.137.327-.326.323-.606zM2.399 33.772c0 .786-.017 1.535.007 2.778.014-.042.299.211.74.276.138.021.28.011.421.011h42.84c.125 0 .251.007.375-.005.483-.046.782-.338.793-.722.017-.832.004-1.566.004-2.338H2.399z"/>
</svg>
