<svg xmlns="http://www.w3.org/2000/svg" width="49" height="47">
    <path fill-rule="evenodd" fill="#FFC106" d="M47.401 46.776c-14.741-.008-30.671-.007-46.007-.007-.832 0-1.085-.262-1.088-1.107v-.944c.001-1.819.947-2.776 3.204-2.777h15.301c1.026 0 1.027 0 1.406-.955.179-.452.355-.166.576-1.468H3.177c-1.061 0-1.268-.207-1.268-1.262 0-.393-.013-.788.006-.506.042-1.572.426-2.295 1.224-2.42.336-.475.421-.693.437-1.028.107-1.952.606-4.446 1.634-6.553 1.62-1.919 2.407-5.025 4.432-7.043 3.073-3.065 6.748-5.022 11.016-5.815.938-.174 1.893-.251 2.886-.379v-1.579c.146 0-.97.011-.734-.002-2.249-.04-3.292-1.135-3.216-2.598.06-1.141.99-2.166 2.132-2.199 1.77.696 3.543.696 5.664-.002.798.032 1.733 1.041 1.8 2.179.074 1.251-.714 2.347-1.906 2.541-.659.107-1.338.082-2.047.118v1.549c1.593.103 1.701.179 2.546.315 3.487.523 6.186 1.785 8.842 3.718 2.996 2.18 5.255 4.974 6.783 8.354 1.026 2.267 2.172 4.645 1.785 7.544.026.069.096.417.591.68.727.386 1.047 1.104 1.085 2.41.023.001.013.76.007.978-.009.706-.294.994-1.011.997-1.6.008-3.199.003-4.205.003H27.992c.327.822.613 2.432.939 2.314.039.087.3.105.458.105 4.454.005 8.907.004 13.361.004h2.681c1.817 0 2.354.349 3.049 1.984v2.267c-.229.439-.586.585-1.079.584zM26.719 11.313c.529-.014.868-.349.873-.796.005.363-.298-.787-.76-.792a226.996 226.996 0 0 0-4.882 0c-.448.005-.737.865-.755.749-.017.409.249.729.691.815.344.027.28.029.42.03.688.003 1.377.001 2.065.001v-.002c.783 0 1.566.016 2.348-.005zm-2.326 4.857c-10.744 0-18.851 8.617-19.222 18.475h38.443c-.37-9.858-8.477-18.475-19.221-18.475zm20.854 21.693c.1-1.315-.128-1.571-1.363-1.571l-38.989.001c-.173 0-.346-.01-.517.005-.544.046-.825.329-.861.872-.015.217-.003.437-.003.693h41.733zm-23.671 4.061h5.636c-.308-.769-.594-1.51-.908-2.239-.037-.088.526-.158-.338-.159a117.68 117.68 0 0 0-3.144.001c-.125.002-.317.095-.361.197-.308.715-.585 1.444-.885 2.2zm23.885 1.625-42.23.001c.509 0-.314-.008-.47.004-.516.039-.808.322-.846.835-.018.232-.003.468-.003.736h44.935c.115-1.328-.107-1.576-1.386-1.576zM15.982 19.905l.764 1.409c-1.596.97-3.257 2.18-4.536 3.681-1.282 1.504-2.257 3.197-2.952 5.123l-1.516-.533c1.568-4.254 4.578-7.463 8.24-9.68zm3.82.475c-.531-.154-1.01.015-1.522.197.47.263-.395-.951-.615-.587.554-1.09 1.086-1.281 1.67-1.491.156.611.303.997.467 1.881zM30.835 9.743h4.76v1.551h-4.76V9.743zm-2.112-3.779c1.125-1.132 2.245-2.259 4.147-3.385-.455.324-.091.684.252 1.022l-3.375 3.394c-.356-.359-.357-.712-1.024-1.031zM23.614.867h1.549V5.64h-1.549V.867zm-5.669 10.429h-4.746V9.74h4.746v1.556zm-2.259-7.704c.514-.298.715-.638 1.084-.966 1.045 1.068 2.157 2.206 3.47 3.327-.511.307-.866.675-.8 1.018-1.516-1.127-2.628-2.246-3.754-3.379z"/>
</svg>
