<svg xmlns="http://www.w3.org/2000/svg" width="20" height="20">
    <path fill-rule="evenodd" fill="#FFC106" d="M19.525 9.469c-.033.004-.063.008-.097.008-.275 0-.516-.195-.562-.077-.334-2.03-1.264-4.157-2.693-5.583a9.601 9.601 0 0 0-5.195-2.688c-.313.591-.52-.346-.47-.66.055-.309.347.031.656-.069 2.206-.02 4.214 1.02 5.812 2.74 1.598 1.471 2.638 3.476 3.014 5.679.46.308-.156.603-.465.65zM11.7 3.63c.647.229 1.869.861 2.837 1.829a6.51 6.51 0 0 1 1.831 3.525.57.57 0 0 1-.567.666.566.566 0 0 1-.562-.473c.251-.467-.71-1.507-1.513-2.912a5.378 5.378 0 0 0-2.917-1.512c-.313-.051-.516-.351-.461.197.055-1.163.346-1.369 1.352-1.32zM7.22 7.391c-.313.318-.635.989-.981.964.258.57.613 1.131 1.141 1.797 1.091 1.34 2.228 2.373 3.479 3.166.123.076.267.148.419.225.106.054.215.109.325.168l1.336-1.33c.427-.426.926-.649 1.446-.649.524 0 1.019.228 1.429.654l2.321 2.325c.427.422.651.924.651 1.448 0 .519-.22 1.027-.639 1.461-.182.19-.368.372-.549.544-.267.258.182.499-.74.764-.004.009-.013.013-.017.022-.643.695-1.463 1.046-2.439 1.046-.085 0-.178-.004-.266-.009-1.451-.093-2.748-.636-3.721-1.097-2.544-1.228-4.772-2.972-6.624-5.179-1.526-1.832-2.549-3.542-3.234-5.386-.279-.752.283-1.9-.397-3.132.68-.764.232-1.423.773-1.964l1.438-1.447.008-.009c.423-.405.922-.619 1.438-.619.515 0 1.006.214 1.416.619.275.507.541.524 1.037.786-.116.136.02.271.151.401l1.154 1.153c.887.885.887 2.033 0 3.227-.119-.189-.237-.066-.355.051zm-.449-2.473L5.617 3.766c-.135-.14-.27-.274-.401-.41-.258.544-.503-.514-.761-.756a.127.127 0 0 1-.013-.011c-.135-.135.468-.296-.617-.296-.216 0-.435.106-.643.3L1.741 4.32c-.351.063-.541.472-.583.966.782 1.294.08 1.591.473 2.643.638 1.721 1.602 3.325 3.044 5.06 1.746 2.721 3.847 3.723 6.239 4.88.875.419 2.042.907 3.298.987.063.005.131.005.194.005 1.254 0 1.163-.216 1.59-.672.262-.307.541-.582.815-.843.182-.178.351.354.516-.516.431-.448.431-.89-.004-1.321l-2.329-2.326-.009-.008c-.131.135-.346-.307-.609-.307-.266 0-.494.532-.638.315l-1.446 1.445c-.071.07-.192.29-.642.29a.915.915 0 0 1-.419-.105c-.017-.01-.033-.023-.05-.029.399-.078-.267-.148-.419-.226a5.346 5.346 0 0 1-.52-.282c-1.357-.856-2.587-1.975-3.754-3.411l-.004-.003c-.643-.392-1.065-1.499-1.365-2.224l-.013-.039c.194-.24-.144-.199.22-.959.004-.007.012-.013.021-.021.368-.328 1.183-.666 1.061-1.029.123-.119.241-.24.363-.363.449-.448.449-.861 0-1.309z"/>
</svg>
