<svg xmlns="http://www.w3.org/2000/svg" width="29" height="49">
    <path fill-rule="evenodd" fill="#FFC106" d="M28.94 15.917c-1.289.003-1.547-.305-1.549-.317-.004-1.448.01-2.355-.005-3.263-.019-.417-.932-2.152-2.174-2.158-1.932-.009-3.865-.003-5.871-.003v2.014c-.001.8-.204 1.01-.983 1.011h-7.016c-.76-.001-.972-.215-.974-.973-.002-.668 0-1.337 0-2.052h-.454c-1.762 0-3.523-.002-5.285.001-1.424.003-2.308 1.423-2.309 2.309-.002 6.899-.001 13.798-.001 20.697 0 .759.621 1.106-.709 1.098-.478-.008-.694-.356-.694-1.119 0-6.899-.002-13.798.001-20.697.001-1.894 2.023-3.33 2.981-3.65.244-.043.496-.044.745-.045 1.996-.004 3.992-.002 5.987-.002h.595c.755-.195-.095-.334-.304-.467C9.33 6.2 7.737 3.705 6.145 1.407 5.713.782 5.729.58 6.246.39h.561c.187-.127.392.084.558.324 1.805 3.126 3.296 4.746 4.943 7.12.083.119.175.836.289.385 1.203-.697.936-1.35 1.395-2.012-.094.443-.175-.273-.263-.399l-3.07-4.428c-.429-.619-.394-.88.172-.99h.468c.179-.16.383.012.533.224.669.942 1.322 1.895 1.981 2.844l1.032 1.489c.134-.18.965-.312.331-.448C16.85 3.191 16.989 1.88 17.905.576c.545-.199.335-.359.506-.186h.467c.564.111.6.373.622.99-2.05 2.311-3.652 4.619-5.253 6.929-.092.132.473.27-.297.459.853 0 1.617-.018 2.379.008.321.011.504-.106 1.571-.362.88-2.572 2.66-5.137 4.444-7.7.166-.24.371-.45.558-.324h.562c.523.199.534.396.075 1.058l-4.725 6.816c-.096.138-.185.282-.331.504h.847c2.27 0 4.54-.004 5.784.001 2.16.005 3.668 1.524 3.678 3.698.005.86.005 1.72 0 3.013-.003.124-.258.433.148.437zm-11.02-5.701h-6.125v1.544h6.125v-1.544zM7.53 39.682c4.73-.004 9.936-.005 15.142 0 .57 0 .81.26.815.848.008.876.005 1.752.002 2.628-.003.762-.213.977-.974.978-2.556.003-5.112.001-7.669.001H7.27c-.862-.001-1.048-.188-1.05-.197-.001-1.706-.006-2.566.003-3.426.006-.58.251-.832 1.307-.832zm.119 3.018H22.6v-1.584H7.649V42.7zm-.41-26.528h15.252c.807 0 .998.187.998.986l.001 9.952-.001 10.04c0 .722-.19 1.47-1.042 1.47H7.241c-.82 0-1.02-.757-1.02-1.21V17.184c0-.837.177-1.012 1.018-1.012zm15.241 1.436H7.665v12.263c1.024-.907 2.177-1.231 3.486-1.202-2.563-2.069-1.961-6.072.219-7.888 1.91-1.958 4.793-2.121 6.908-.357 1.129.943 2.522 2.149 1.966 3.946.2 1.455-.413 2.973-1.719 4.31 1.352-.049 2.615.289 3.955 1.191V17.608zm-7.629 11.07c2.769.002 4.021-1.805 4.026-4.019.006-2.218-1.017-4.04-3.996-4.053-2.227-.012-4.053 1.812-4.049 4.047.003 2.216 1.809 4.024 4.019 4.025zm-7.204 7.95h2.533c0-.365-.006-.706.001-1.047.011.089.274-.815.703-.815.433-.001.689.834.698.815.006.351.001.703.001 1.04h6.543c0-.374-.005-.716.002-1.058.009.117.255-.782.669-.796.437-.015.716.693.73.786.01.354.002.709.002 1.074h2.981c.13-.085.31-.145.31-.204 0-1.127-.714-2.255-.11-2.993-.5-2.002-1.974-3.31-3.584-3.329a20.982 20.982 0 0 1-8.562.001c-.834.018-2.821 1.24-2.902 2.679-.071 1.659-.015 2.532-.015 3.847zm-6.015-.455c1.018.006.685.298.686.826.003 2.441 0 4.882.002 7.323.001 1.519.864 2.381 2.382 2.382H25.7c.824-.001 1.689-.865 1.689-2.382l.001-25.444c0-.726.216-1.063 1.38-1.072-.21-.009.023.347.023 1.096.001 8.434.001 16.868 0 25.303 0 2.083-.911 3.285-2.917 4.365-.027.08-.049.36-.073-.458H3.906c-.247.158-.501-.155-.742-.259-1.396-.596-2.197-1.667-2.23-3.18-.055-2.565-.02-5.132-.016-7.698.001-.512.28-.808.714-.802z"/>
</svg>
