<svg xmlns="http://www.w3.org/2000/svg" width="49" height="49">
    <path fill-rule="evenodd" fill="#FFC106" d="M47.597 15.535c-2.364.004-4.727.001-7.09.001-2.313 0-4.626.002-6.94 0-.787-.001-1.054-.268-1.054-1.058-.002-3.628-.002-8.788 0-13.182 0-.793.272-1.064 1.049-1.06 7.365.043 13.82 5.678 14.862 12.977.059.415.105 1.227.147 1.248.071.711-.251 1.072-.974 1.074zM34.146 1.93v11.971h12.718C46.2 7.12 40.41 2.8 34.146 1.93zm11.24 16.49c.076 7-3.821 12.37-9.994 14.688-2.396 1.692-4.875 1.178-7.416.784-.08-.012-.162-.011-.294-.018V47.42c0 .895-.241 1.14-1.126 1.14l-25.098.001C.546 48.56.315 48.323.315 47.388.314 34.201.316 21.15.307 7.828c0-.471.133-.628.47-1.159A842.192 842.192 0 0 0 6.753.69C7.7.369 7.407.225 7.862.226c7.128.011 12.474.007 18.711.007.857.001 1.107.251 1.109 1.105V3.62c.762-.057 1.462-.13 2.163-.156.779-.03 1.056.26 1.056 1.048.002 4.01.001 8.019.001 12.029v.607H44.96c.245 0 .414.166.426 1.272zM6.725 3.179 3.233 6.658h3.492V3.179zM26.37 1.885H8.364c0 1.835.003 3.629-.002 5.423-.002.688.338.975-.983.978-1.441.005-2.883.002-3.839.002H1.945v38.627H26.46V33.571c-7.089-2.316-11.212-6.826-11.563-13.915-.394-7.951 3.79-13.056 11.473-15.737V1.885zm2.922 3.782v-.543c-4.108.12-9.427 2.67-11.818 8.346-2.129 5.054-.837 11.25 2.051 13.903.12-.113.244-.224.361-.053a382.922 382.922 0 0 1 9.07-9.352c.244-.244.345-.484.344-.832-.012-3.823-.008-7.646-.008-11.469zm14.432 13.124c-.045-.01-.092-.029-.139-.029-4.291-.002-8.185-.006-12.871.009-.185 0-.408.13-.547.609-1.468 1.106-2.921 2.568-4.38 4.025-1.117 1.717-3.441 3.432-5.16 5.147 3.288 3.425 9.31 5.231 14.947 2.747 5.995-2.643 8.35-8.505 8.15-12.508zM21.242 38.58c.003 3.99-3.032 6.741-6.702 6.755-4.21.015-7.767-3.208-7.784-7.215-.018-4.005 3.222-7.265 7.236-7.279 3.967-.013 7.247 4.089 7.25 7.739zm-6.582-6.129c-3.731-.02-6.279 2.486-6.295 6.129-.015 2.58 2.505 5.137 5.588 5.147 3.847.011 5.664-2.506 5.679-4.787.014-3.69-2.505-6.468-4.972-6.489zm.055 3.685c-.195-.375-.514-.539-.918-.429-.398.108-.624.401-.594.824.03.419.286.668.697.744.213.039.436.032.645.085 1.011.255 1.634.913 1.822 1.926.178.958-.143 2.634-.953 2.324-.514.328-.729.665-.584 1.274h-1.586c-.013-.033-.049-.081-.043-.121.073-.53-.1-.858-.606-1.144-.676-.384-.965-1.08-1.01-1.893h1.558c.04.094.083.216.144.814.201-.115.52.044.924-.072.399-.115.618.102.581-.833-.036-.417-.295-.662.048-.732-.97-.036-1.192-.037-1.4-.091-.943-.248-1.542-.851-1.766-1.692-.227-.58.056-1.899.818-2.485.47-.361.933-.636.654-1.353h1.585c.019.024.059.051.056.073-.072.563.121.92.647 1.227 1.456.382.929 1.069.979 1.88h-1.567c-.044-.112-.078-.224-.131-.326zM5.173 21.215h8.001v1.539H5.173v-1.539zm7.991-3.286H5.183v-1.554h7.981v1.554zm-7.979-6.385h7.986v2.396H5.185v-2.396zm7.968 16.04H5.168V26.33h7.985v1.254zM34.84 48.528h-3.927v-1.537h3.927v1.537zM30.925 37.31h3.895v1.55h-3.895v-1.55zm3.975 6.392h-3.975v-1.55H34.9v1.55zm13.669 4.823H35.754v-1.549h12.815v1.549zM35.755 37.31H48.57v1.551H35.755V37.31zm12.815 6.384H35.763v-1.569H48.57v1.569z"/>
</svg>
